<svg width="32" height="32" viewBox="0 0 32 32" fill="none" xmlns="http://www.w3.org/2000/svg">
<g clip-path="url(#clip0_150_114)">
<mask id="mask0_150_114" style="mask-type:luminance" maskUnits="userSpaceOnUse" x="0" y="0" width="32" height="32">
<path d="M32 0H0V32H32V0Z" fill="white"/>
</mask>
<g mask="url(#mask0_150_114)">
<path d="M16.3 0H15.7C10.3823 0 7.72347 0 5.67127 0.985449C3.62216 1.96942 1.96942 3.62216 0.985449 5.67127C0 7.72347 0 10.3823 0 15.7V16.3C0 21.6177 0 24.2765 0.985449 26.3287C1.96942 28.3778 3.62216 30.0306 5.67127 31.0146C7.72347 32 10.3823 32 15.7 32H16.3C21.6177 32 24.2765 32 26.3287 31.0146C28.3778 30.0306 30.0306 28.3778 31.0146 26.3287C32 24.2765 32 21.6177 32 16.3V15.7C32 10.3823 32 7.72347 31.0146 5.67127C30.0306 3.62216 28.3778 1.96942 26.3287 0.985449C24.2765 0 21.6177 0 16.3 0Z" fill="white"/>
<path fill-rule="evenodd" clip-rule="evenodd" d="M15.5311 7.70093L15.5325 7.70047L16.4225 7.40423C19.085 6.51804 21.9617 7.95798 22.848 10.6204L23.9875 14.044C24.0124 14.0912 24.0333 14.1401 24.0502 14.1908L24.5278 15.6258C24.5328 15.6409 24.5374 15.656 24.5417 15.6713C24.546 15.6866 24.5499 15.7019 24.5534 15.7174C24.5569 15.7329 24.56 15.7484 24.5627 15.764C24.5655 15.7796 24.5679 15.7953 24.5699 15.8111C24.5718 15.8268 24.5734 15.8426 24.5746 15.8584C24.5758 15.8742 24.5766 15.89 24.577 15.9059C24.5775 15.9218 24.5775 15.9376 24.5772 15.9535C24.5768 15.9693 24.576 15.9851 24.5749 16.001C24.5738 16.0168 24.5723 16.0326 24.5704 16.0483C24.5684 16.0641 24.5662 16.0798 24.5635 16.0954C24.5608 16.111 24.5578 16.1265 24.5543 16.142C24.5509 16.1575 24.5471 16.1729 24.5429 16.1882C24.5387 16.2035 24.5341 16.2187 24.5292 16.2337C24.5242 16.2488 24.5189 16.2638 24.5133 16.2786C24.5076 16.2934 24.5015 16.308 24.4952 16.3226C24.4887 16.3371 24.482 16.3514 24.4749 16.3656C24.4678 16.3798 24.4604 16.3938 24.4526 16.4076C24.4448 16.4214 24.4367 16.435 24.4282 16.4485C24.4198 16.4619 24.411 16.4751 24.4019 16.4881C24.3928 16.501 24.3834 16.5138 24.3736 16.5263C24.3639 16.5388 24.3539 16.5511 24.3435 16.5631C24.3332 16.5752 24.3226 16.5869 24.3117 16.5984C24.3008 16.61 24.2896 16.6212 24.2781 16.6322C24.2666 16.6432 24.2549 16.6538 24.2429 16.6642C24.231 16.6746 24.2187 16.6847 24.2062 16.6945C24.1938 16.7042 24.1811 16.7137 24.1681 16.7229C24.1552 16.732 24.142 16.7409 24.1286 16.7494C24.1153 16.7579 24.1017 16.7661 24.0879 16.7739C24.0741 16.7818 24.0602 16.7893 24.046 16.7964C24.0318 16.8036 24.0175 16.8104 24.0031 16.8169C23.9886 16.8234 23.9739 16.8295 23.9592 16.8352C23.9444 16.8409 23.9294 16.8463 23.9144 16.8513C23.8843 16.8613 23.8538 16.8698 23.8228 16.8769C23.7919 16.8839 23.7606 16.8894 23.7292 16.8933C23.6977 16.8973 23.666 16.8997 23.6343 16.9005C23.6026 16.9014 23.5709 16.9007 23.5393 16.8984C23.5076 16.8962 23.4761 16.8924 23.4449 16.887C23.4135 16.8816 23.3826 16.8748 23.352 16.8664C23.3214 16.858 23.2913 16.8481 23.2616 16.8367C23.232 16.8254 23.203 16.8126 23.1746 16.7984C23.1462 16.7842 23.1186 16.7686 23.0918 16.7517C23.0649 16.7348 23.0389 16.7166 23.0139 16.6971C22.9888 16.6777 22.9648 16.657 22.9417 16.6352C22.9187 16.6133 22.8968 16.5904 22.876 16.5665C22.8552 16.5425 22.8357 16.5175 22.8173 16.4916C22.799 16.4657 22.782 16.439 22.7663 16.4114C22.7506 16.3838 22.7362 16.3555 22.7233 16.3265C22.7104 16.2976 22.6989 16.268 22.6889 16.2379L22.4385 15.4857H22.4382L21.0212 11.2285C20.8857 10.8216 20.6783 10.4593 20.3989 10.1417C20.1284 9.83408 19.8086 9.58794 19.4396 9.40323C19.0706 9.21853 18.6819 9.11005 18.2735 9.07779C17.8518 9.04448 17.4375 9.09554 17.0306 9.23098L16.1439 9.52608L16.1412 9.52701L16.1389 9.52779C15.7585 9.65457 15.3669 9.71813 14.964 9.71846C14.5588 9.71881 14.1652 9.65524 13.7831 9.52776L13.7825 9.52755L13.7816 9.52726L12.8916 9.23103C12.4847 9.09559 12.0704 9.04453 11.6487 9.07784C11.2403 9.1101 10.8516 9.21858 10.4827 9.40328C10.1136 9.58799 9.79384 9.83413 9.52328 10.1417C9.24387 10.4593 9.03645 10.8216 8.90101 11.2285L6.06211 19.7576C6.00033 19.9432 5.977 20.1315 5.9921 20.3227C6.00676 20.5084 6.05623 20.6854 6.14049 20.8538C6.22475 21.0221 6.33681 21.1678 6.47667 21.2908C6.62065 21.4175 6.78543 21.5117 6.97103 21.5735L9.49265 22.4128C9.50995 22.4186 9.5273 22.424 9.5447 22.4291C9.75145 22.4896 10.0175 22.5156 10.3427 22.5071C10.5054 22.5028 10.6961 22.4896 10.9148 22.4675C11.0591 22.4529 11.2838 22.4265 11.5889 22.3881C11.9666 22.3407 12.2543 22.3076 12.4517 22.2889C12.8087 22.2551 13.1341 22.2382 13.4279 22.2382H16.4947C16.7884 22.2382 17.1138 22.2551 17.4708 22.2889C17.6682 22.3076 17.9558 22.3407 18.3334 22.3881C18.6386 22.4265 18.8633 22.4529 19.0075 22.4675C19.2262 22.4896 19.4169 22.5028 19.5796 22.5071C19.8505 22.5142 20.0804 22.4973 20.2691 22.4564C20.3289 22.4331 20.3904 22.4158 20.4535 22.4048L20.5655 22.3675C20.4871 22.0644 20.4456 21.7548 20.4411 21.4389C20.4335 20.9095 20.5323 20.41 20.7377 19.9405C20.9818 19.3821 21.3636 18.8972 21.883 18.4855C22.3827 18.0896 22.8964 17.8056 23.4242 17.6337C23.9752 17.4543 24.4856 17.4136 24.9554 17.5114C25.2271 17.568 25.4692 17.6693 25.6818 17.8153C25.9209 17.9795 26.1067 18.188 26.2393 18.4409C26.3694 18.689 26.4382 18.9617 26.4457 19.2589C26.4523 19.5236 26.4091 19.7986 26.3161 20.0839C26.1531 20.5837 25.7745 21.1118 25.1802 21.6683C24.7487 22.0723 24.2176 22.4836 23.587 22.9021C23.8071 22.9635 24.0481 22.9943 24.3099 22.9943C24.8718 22.9943 25.3328 22.9189 25.693 22.7681C25.8273 22.7119 25.9516 22.6433 26.0659 22.5623C26.1621 22.4942 26.259 22.4112 26.3567 22.3135C26.379 22.2912 26.4023 22.2701 26.4267 22.2501C26.4511 22.2301 26.4764 22.2114 26.5026 22.1938C26.5288 22.1763 26.5558 22.1601 26.5836 22.1453C26.6114 22.1304 26.6399 22.1169 26.669 22.1049C26.6981 22.0928 26.7278 22.0823 26.7579 22.0731C26.7881 22.0639 26.8186 22.0563 26.8496 22.0501C26.8805 22.044 26.9117 22.0393 26.943 22.0363C26.9744 22.0332 27.0058 22.0316 27.0374 22.0316C27.0531 22.0316 27.0688 22.032 27.0846 22.0328C27.1003 22.0336 27.116 22.0347 27.1317 22.0363C27.1474 22.0378 27.163 22.0397 27.1786 22.042C27.1942 22.0444 27.2097 22.047 27.2251 22.0501C27.2406 22.0532 27.256 22.0567 27.2713 22.0605C27.2866 22.0643 27.3017 22.0685 27.3168 22.0731C27.3319 22.0777 27.3468 22.0826 27.3616 22.0879C27.3765 22.0932 27.3912 22.0989 27.4057 22.1049C27.4203 22.111 27.4347 22.1173 27.4489 22.1241C27.4632 22.1308 27.4772 22.1379 27.4911 22.1453C27.5051 22.1527 27.5188 22.1605 27.5323 22.1686C27.5458 22.1767 27.559 22.1851 27.5721 22.1939C27.5853 22.2026 27.5982 22.2117 27.6108 22.2211C27.6234 22.2305 27.6359 22.2402 27.6481 22.2502C27.6602 22.2601 27.6721 22.2704 27.6838 22.281C27.6955 22.2916 27.7069 22.3024 27.7181 22.3136C27.7292 22.3247 27.74 22.3362 27.7506 22.3478C27.7612 22.3595 27.7715 22.3714 27.7815 22.3836C27.7915 22.3958 27.8012 22.4082 27.8106 22.4208C27.8199 22.4335 27.829 22.4464 27.8378 22.4594C27.8465 22.4726 27.855 22.4859 27.863 22.4994C27.8711 22.5129 27.8789 22.5266 27.8863 22.5405C27.8937 22.5544 27.9008 22.5685 27.9076 22.5827C27.9143 22.5969 27.9207 22.6113 27.9267 22.6259C27.9327 22.6405 27.9384 22.6552 27.9437 22.67C27.949 22.6848 27.954 22.6998 27.9585 22.7149C27.9631 22.7299 27.9673 22.7451 27.9711 22.7604C27.975 22.7756 27.9784 22.791 27.9815 22.8065C27.9846 22.822 27.9873 22.8375 27.9896 22.853C27.9919 22.8686 27.9938 22.8842 27.9954 22.8999C27.9969 22.9156 27.9981 22.9313 27.9988 22.9471C27.9996 22.9628 28 22.9785 28 22.9943C28 23.0258 27.9985 23.0573 27.9954 23.0886C27.9923 23.12 27.9876 23.1512 27.9815 23.1821C27.9754 23.213 27.9677 23.2436 27.9585 23.2738C27.9494 23.3039 27.9388 23.3336 27.9267 23.3627C27.9146 23.3919 27.9012 23.4203 27.8863 23.4481C27.8714 23.4759 27.8553 23.5029 27.8378 23.5291C27.8202 23.5554 27.8014 23.5807 27.7814 23.605C27.7614 23.6294 27.7403 23.6527 27.718 23.675C27.3365 24.0564 26.9094 24.3461 26.4365 24.5441C25.8385 24.7944 25.1296 24.9196 24.3099 24.9196C23.4778 24.9196 22.7401 24.7263 22.0968 24.3397C21.9356 24.2428 21.7817 24.1341 21.635 24.0137C21.5151 24.069 21.4044 24.1166 21.3027 24.1564C21.1956 24.1984 21.0988 24.2315 21.0123 24.2559C20.943 24.2753 20.8763 24.29 20.8123 24.2999V24.306C19.943 24.5307 19.0171 24.4144 18.0935 24.2984C17.5559 24.2309 17.019 24.1634 16.4947 24.1634H13.4279C12.9034 24.1634 12.3665 24.2309 11.8289 24.2984C10.8675 24.4192 9.90355 24.5403 9.00362 24.2768C8.9639 24.2651 8.92423 24.2527 8.88464 24.2396L6.36299 23.4002C4.60168 22.814 3.64911 20.9109 4.23536 19.1496L7.07427 10.6205C7.96046 7.95803 10.8372 6.51809 13.4996 7.40428L13.6221 7.44503L14.3896 7.70052L14.3921 7.70132C14.7595 7.82392 15.1628 7.82373 15.5302 7.70124L15.5311 7.70093ZM23.0787 19.9944C22.5987 20.3748 22.3612 20.8435 22.3661 21.4004C22.4073 21.3737 22.4486 21.3467 22.49 21.3194C23.0459 20.9524 23.5039 20.6003 23.8643 20.2629C24.0505 20.0886 24.1995 19.9277 24.3115 19.7803C24.4033 19.6595 24.4613 19.5618 24.4857 19.4871C24.4975 19.4507 24.5064 19.4179 24.5123 19.3888C24.4693 19.3846 24.4198 19.3851 24.3639 19.39C24.2585 19.3994 24.144 19.4242 24.0203 19.4644C23.7117 19.565 23.3978 19.7416 23.0787 19.9944Z" fill="url(#paint0_linear_150_114)"/>
<path d="M18.0482 14.9329C18.0482 14.3878 17.6063 13.9458 17.0611 13.9458C16.5159 13.9458 16.0739 14.3878 16.0739 14.9329V17.1795C16.0739 17.7247 16.5159 18.1667 17.0611 18.1667C17.6063 18.1667 18.0482 17.7247 18.0482 17.1795V14.9329Z" fill="url(#paint1_linear_150_114)"/>
<path d="M12.2899 14.9329C12.2899 14.3878 11.848 13.9458 11.3028 13.9458C10.7576 13.9458 10.3157 14.3878 10.3157 14.9329V17.1795C10.3157 17.7247 10.7576 18.1667 11.3028 18.1667C11.848 18.1667 12.2899 17.7247 12.2899 17.1795V14.9329Z" fill="url(#paint2_linear_150_114)"/>
<path d="M13.3858 20.601C13.43 20.601 13.4699 20.6098 13.5054 20.6275C13.541 20.6451 13.5692 20.6727 13.5902 20.7101C13.6111 20.7475 13.6216 20.7958 13.6216 20.8551V21.1975H13.3484V20.8926C13.3484 20.8676 13.3441 20.845 13.3357 20.8248C13.3272 20.8046 13.3081 20.7944 13.2785 20.7944C13.2587 20.7944 13.2427 20.7993 13.2305 20.8089C13.2182 20.8186 13.2094 20.8308 13.204 20.8456C13.1986 20.8604 13.1959 20.8761 13.1959 20.8926V21.1975H12.9425V20.8926C12.9425 20.8676 12.9386 20.845 12.9308 20.8248C12.923 20.8046 12.9041 20.7944 12.874 20.7944C12.8542 20.7944 12.8381 20.7993 12.8256 20.8089C12.8132 20.8186 12.8041 20.8308 12.7984 20.8456C12.7928 20.8604 12.79 20.8761 12.79 20.8926V21.1975H12.5147V20.618H12.79V20.6963C12.7961 20.6817 12.8094 20.6671 12.8299 20.6525C12.8503 20.638 12.875 20.6257 12.904 20.6158C12.9329 20.606 12.9627 20.601 12.9933 20.601C13.0272 20.601 13.0555 20.6047 13.0784 20.612C13.1012 20.6192 13.1204 20.6301 13.1359 20.6444C13.1514 20.6588 13.1651 20.6763 13.1768 20.697C13.1829 20.6824 13.1961 20.6677 13.2164 20.6529C13.2366 20.6381 13.2615 20.6257 13.2912 20.6158C13.3208 20.606 13.3524 20.601 13.3858 20.601ZM13.9527 20.9624C13.955 20.9737 13.961 20.9833 13.9707 20.991C13.9803 20.9988 13.9928 21.0048 14.0081 21.009C14.0234 21.0133 14.0407 21.0154 14.06 21.0154C14.0807 21.0154 14.1009 21.0145 14.1207 21.0126C14.1404 21.0107 14.1586 21.0076 14.175 21.0034C14.1915 20.9992 14.2047 20.9937 14.2146 20.9872L14.3141 21.1615C14.3052 21.1672 14.2904 21.1741 14.27 21.1823C14.2495 21.1906 14.2208 21.198 14.1838 21.2046C14.1469 21.2112 14.0993 21.2145 14.0409 21.2145C13.9755 21.2145 13.9162 21.2034 13.863 21.1813C13.8098 21.1592 13.7676 21.1249 13.7363 21.0786C13.705 21.0322 13.6893 20.9733 13.6893 20.9017C13.6893 20.8453 13.7023 20.7943 13.7282 20.7489C13.7541 20.7035 13.7915 20.6675 13.8404 20.6409C13.8894 20.6143 13.9487 20.601 14.0183 20.601C14.0856 20.601 14.1438 20.6123 14.193 20.6349C14.2422 20.6575 14.2801 20.6922 14.3067 20.739C14.3333 20.7858 14.3466 20.8457 14.3466 20.9187C14.3466 20.9224 14.3464 20.9299 14.3462 20.9409C14.346 20.952 14.3454 20.9592 14.3444 20.9624H13.9527ZM14.0847 20.8488C14.0842 20.8333 14.0813 20.8203 14.0758 20.81C14.0704 20.7996 14.0633 20.792 14.0543 20.787C14.0454 20.7821 14.0348 20.7796 14.0225 20.7796C14.0117 20.7796 14.0015 20.7818 13.9918 20.7863C13.9822 20.7908 13.9743 20.7981 13.9682 20.8082C13.9621 20.8183 13.9588 20.8319 13.9583 20.8488H14.0847ZM14.3917 20.618H14.48V20.3801H14.7546V20.618H14.8718V20.8439H14.7546V20.9187C14.7546 20.9356 14.7566 20.9512 14.7606 20.9653C14.7646 20.9794 14.7753 20.9865 14.7927 20.9865C14.8021 20.9865 14.811 20.9841 14.8192 20.9794C14.8274 20.9747 14.8325 20.9714 14.8344 20.9695L14.9247 21.1651C14.921 21.1683 14.9088 21.174 14.8884 21.182C14.8679 21.19 14.842 21.1974 14.8107 21.2042C14.7794 21.2111 14.7452 21.2145 14.708 21.2145C14.6412 21.2145 14.5865 21.1963 14.5439 21.1601C14.5013 21.1239 14.48 21.0686 14.48 20.9942V20.8439H14.3917V20.618ZM15.4231 21.1975V21.1163C15.4184 21.1248 15.4079 21.1369 15.3917 21.1527C15.3755 21.1685 15.3543 21.1827 15.3282 21.1954C15.3021 21.2081 15.2716 21.2145 15.2368 21.2145C15.1789 21.2145 15.1291 21.2 15.0874 21.1711C15.0458 21.1421 15.0139 21.1043 14.9918 21.0577C14.9697 21.0112 14.9586 20.9613 14.9586 20.9081C14.9586 20.8549 14.9697 20.805 14.9918 20.7584C15.0139 20.7118 15.0458 20.674 15.0874 20.6448C15.1291 20.6156 15.1789 20.601 15.2368 20.601C15.2697 20.601 15.2984 20.6056 15.3229 20.6148C15.3473 20.624 15.3677 20.635 15.3839 20.648C15.4002 20.6609 15.4123 20.6735 15.4203 20.6857V20.618H15.697V21.1975H15.4231ZM15.2311 20.9081C15.2311 20.9241 15.2351 20.9392 15.2431 20.9533C15.2511 20.9674 15.2622 20.9787 15.2763 20.9872C15.2904 20.9956 15.3069 20.9999 15.3257 20.9999C15.3445 20.9999 15.361 20.9956 15.3751 20.9872C15.3892 20.9787 15.4003 20.9674 15.4083 20.9533C15.4163 20.9392 15.4203 20.9241 15.4203 20.9081C15.4203 20.8921 15.4163 20.877 15.4083 20.8629C15.4003 20.8488 15.3892 20.8374 15.3751 20.8287C15.361 20.82 15.3445 20.8156 15.3257 20.8156C15.3069 20.8156 15.2904 20.82 15.2763 20.8287C15.2622 20.8374 15.2511 20.8488 15.2431 20.8629C15.2351 20.877 15.2311 20.8921 15.2311 20.9081ZM16.6416 21.1975V21.1163C16.6369 21.1248 16.6264 21.1369 16.6101 21.1527C16.5939 21.1685 16.5727 21.1827 16.5466 21.1954C16.5205 21.2081 16.49 21.2145 16.4552 21.2145C16.3973 21.2145 16.3475 21.2 16.3059 21.1711C16.2642 21.1421 16.2324 21.1043 16.2102 21.0577C16.1881 21.0112 16.1771 20.9613 16.1771 20.9081C16.1771 20.8549 16.1881 20.805 16.2102 20.7584C16.2324 20.7118 16.2642 20.674 16.3059 20.6448C16.3475 20.6156 16.3973 20.601 16.4552 20.601C16.4881 20.601 16.5168 20.6056 16.5413 20.6148C16.5658 20.624 16.5861 20.635 16.6024 20.648C16.6186 20.6609 16.6307 20.6735 16.6387 20.6857V20.618H16.9155V21.1975H16.6416ZM16.4495 20.9081C16.4495 20.9241 16.4535 20.9392 16.4615 20.9533C16.4695 20.9674 16.4806 20.9787 16.4947 20.9872C16.5088 20.9956 16.5253 20.9999 16.5441 20.9999C16.563 20.9999 16.5794 20.9956 16.5936 20.9872C16.6077 20.9787 16.6187 20.9674 16.6267 20.9533C16.6347 20.9392 16.6387 20.9241 16.6387 20.9081C16.6387 20.8921 16.6347 20.877 16.6267 20.8629C16.6187 20.8488 16.6077 20.8374 16.5936 20.8287C16.5794 20.82 16.563 20.8156 16.5441 20.8156C16.5253 20.8156 16.5088 20.82 16.4947 20.8287C16.4806 20.8374 16.4695 20.8488 16.4615 20.8629C16.4535 20.877 16.4495 20.8921 16.4495 20.9081ZM17.0355 21.1975V20.618H17.3129V21.1975H17.0355ZM17.1774 20.5537C17.136 20.5537 17.1008 20.539 17.0718 20.5096C17.0429 20.4802 17.0284 20.4452 17.0284 20.4048C17.0284 20.3643 17.0429 20.3291 17.0718 20.2992C17.1008 20.2693 17.136 20.2544 17.1774 20.2544C17.2047 20.2544 17.2296 20.2612 17.2522 20.2749C17.2748 20.2885 17.293 20.3066 17.3069 20.3292C17.3208 20.3518 17.3277 20.377 17.3277 20.4048C17.3277 20.4452 17.313 20.4802 17.2836 20.5096C17.2542 20.539 17.2188 20.5537 17.1774 20.5537Z" fill="#8E4FFF"/>
</g>
</g>
<defs>
<linearGradient id="paint0_linear_150_114" x1="16.0312" y1="7.14282" x2="16.0312" y2="24.9196" gradientUnits="userSpaceOnUse">
<stop stop-color="#284AE8"/>
<stop offset="1" stop-color="#8E4FFF"/>
</linearGradient>
<linearGradient id="paint1_linear_150_114" x1="17.0611" y1="13.9458" x2="17.0611" y2="18.1667" gradientUnits="userSpaceOnUse">
<stop stop-color="#284AE8"/>
<stop offset="1" stop-color="#8E4FFF"/>
</linearGradient>
<linearGradient id="paint2_linear_150_114" x1="11.3028" y1="13.9458" x2="11.3028" y2="18.1667" gradientUnits="userSpaceOnUse">
<stop stop-color="#284AE8"/>
<stop offset="1" stop-color="#8E4FFF"/>
</linearGradient>
<clipPath id="clip0_150_114">
<rect width="32" height="32" fill="white"/>
</clipPath>
</defs>
</svg>
